<svg xmlns="http://www.w3.org/2000/svg" xmlns:xlink="http://www.w3.org/1999/xlink" version="1.1" id="Calque_1" x="0px" y="0px" width="100px" height="100px" viewBox="0 0 100 100" enable-background="new 0 0 100 100" xml:space="preserve">
<g>
	<path d="M34.169,43.257c-2.35-1.176-10.372-5.346-15.071-7.791l17.998,23.217V45.89C37.092,45.89,36.904,44.625,34.169,43.257z"/>
	<path d="M88.481,16.28l0.027-0.097L67.438,5.648c-0.262-0.112-1.201-0.48-2.366-0.48c-0.773,0-1.468,0.157-2.12,0.482   L15.289,29.484c-1.731,0.864-1.942,2.412-1.971,2.785v47.665c0,1.084,0.768,1.902,1.361,2.373l-0.027,0.098l21.062,10.531   c0.183,0.082,1.157,0.484,2.371,0.484c0.775,0,1.47-0.16,2.12-0.484L87.87,69.102c1.731-0.865,1.944-2.412,1.971-2.785V18.652   C89.841,17.569,89.074,16.75,88.481,16.28z M27.139,80.445c-1.306,0.402-3.026-1.139-3.705-3.277   c-0.361-1.139-0.409-2.291-0.136-3.242c0.139-0.479,0.488-1.32,1.275-1.568c0.142-0.045,0.292-0.068,0.446-0.068   c1.253,0,2.653,1.438,3.256,3.346C28.972,77.824,28.449,80.029,27.139,80.445z M87.856,37.098L38.825,61.744v28.404   c0,0.479-0.387,0.865-0.865,0.865c-0.478,0-0.864-0.387-0.864-0.865V61.506L15.31,33.403c-0.249-0.32-0.24-0.771,0.02-1.084   c0.262-0.313,0.706-0.399,1.064-0.212c0.152,0.079,15.19,7.924,18.549,9.604c1.534,0.768,2.456,1.562,3.018,2.252   c0.562-0.69,1.483-1.485,3.018-2.252c3.371-1.686,45.348-22.053,45.771-22.258c0.425-0.208,0.946-0.029,1.155,0.4   c0.208,0.43,0.029,0.946-0.399,1.155c-0.425,0.206-42.393,20.568-45.754,22.249c-2.646,1.324-2.907,2.546-2.927,2.661v13.89   L87.08,35.552c0.424-0.213,0.945-0.045,1.16,0.384C88.455,36.363,88.284,36.883,87.856,37.098z"/>
</g>
</svg>